<svg xmlns="http://www.w3.org/2000/svg" viewBox="0 0 900 1200" role="img" aria-labelledby="title desc">
  <title id="title">App development mobile screens</title>
  <desc id="desc">A set of mobile app screens showing cards, navigation, and feature flow.</desc>
  <defs>
    <linearGradient id="bg" x1="0" x2="1" y1="0" y2="1">
      <stop offset="0" stop-color="#0b1021"/>
      <stop offset="1" stop-color="#111827"/>
    </linearGradient>
    <linearGradient id="cta" x1="0" x2="1">
      <stop offset="0" stop-color="#a78bfa"/>
      <stop offset="1" stop-color="#5eead4"/>
    </linearGradient>
  </defs>
  <rect width="900" height="1200" fill="url(#bg)"/>
  <path d="M122 180C220 92 348 92 438 190C542 304 704 236 778 354C870 502 704 660 814 820C900 944 780 1080 602 1064C420 1048 392 918 232 932C78 946 18 800 112 668C198 548 4 450 122 180Z" fill="#1e293b" opacity=".6"/>
  <g>
    <rect x="155" y="180" width="285" height="650" rx="48" fill="#030712" stroke="#64748b" stroke-width="5"/>
    <rect x="183" y="235" width="229" height="520" rx="24" fill="#0f172a"/>
    <rect x="210" y="275" width="104" height="20" rx="10" fill="#94a3b8"/>
    <rect x="210" y="330" width="170" height="105" rx="22" fill="url(#cta)"/>
    <rect x="210" y="470" width="170" height="30" rx="15" fill="#334155"/>
    <rect x="210" y="520" width="132" height="30" rx="15" fill="#334155"/>
    <rect x="210" y="620" width="54" height="54" rx="18" fill="#1e293b"/>
    <rect x="286" y="620" width="54" height="54" rx="18" fill="#1e293b"/>
    <rect x="362" y="620" width="18" height="54" rx="9" fill="#1e293b"/>
  </g>
  <g opacity=".95">
    <rect x="460" y="320" width="285" height="650" rx="48" fill="#030712" stroke="#64748b" stroke-width="5"/>
    <rect x="488" y="375" width="229" height="520" rx="24" fill="#0f172a"/>
    <rect x="518" y="420" width="132" height="20" rx="10" fill="#94a3b8"/>
    <circle cx="603" cy="542" r="82" fill="url(#cta)"/>
    <rect x="525" y="672" width="155" height="34" rx="17" fill="#334155"/>
    <rect x="525" y="725" width="105" height="34" rx="17" fill="#334155"/>
    <rect x="525" y="805" width="158" height="54" rx="20" fill="#172554" stroke="#38bdf8" stroke-width="2"/>
  </g>
  <text x="90" y="1080" fill="#f8fafc" font-family="Inter, Arial, sans-serif" font-size="50" font-weight="800">APP DEVELOPMENT</text>
  <text x="90" y="1130" fill="#94a3b8" font-family="Inter, Arial, sans-serif" font-size="24">screens, flows, prototypes</text>
</svg>
